[img]http://img39.imageshack.us/img39/983/moneyball.jpg[/img]
[code]
Moneyball 2011 CAM XviD READNFO - MiSTERE
 
http://www.imdb.com/title/tt1210166/

Plot: The story of Oakland A's general manager Billy Beane's successful attempt to put together a baseball club on a budget by employing computer-generated analysis to draft his players.

Source: THS

Video
ID                               : 0
Format                           : MPEG-4 Visual
Format profile                   : Advanced Simple@L5
Format settings, BVOP            : 2
Format settings, QPel            : No
Format settings, GMC             : No warppoints
Format settings, Matrix          : Default (H.263)
Muxing mode                      : Packed bitstream
Codec ID                         : XVID
Codec ID/Hint                    : XviD
Duration                         : 2h 6mn
Bit rate                         : 1 420 Kbps
Width                            : 688 pixels
Height                           : 272 pixels
Display aspect ratio             : 2.529
Frame rate                       : 29.970 fps
Color space                      : YUV
Chroma subsampling               : 4:2:0
Bit depth                        : 8 bits
Scan type                        : Progressive
Compression mode                 : Lossy
Bits/(Pixel*Frame)               : 0.253
Stream size                      : 1.26 GiB (91%)
Writing library                  : XviD 64

Audio
ID                               : 1
Format                           : MPEG Audio
Format version                   : Version 1
Format profile                   : Layer 3
Mode                             : Joint stereo
Mode extension                   : MS Stereo
Codec ID                         : 55
Codec ID/Hint                    : MP3
Duration                         : 2h 6mn
Bit rate mode                    : Constant
Bit rate                         : 128 Kbps
Channel(s)                       : 2 channels
Sampling rate                    : 44.1 KHz
Compression mode                 : Lossy
Stream size                      : 116 MiB (8%)
Alignment                        : Split accross interleaves
Interleave, duration             : 33 ms (1.00 video frame)


Sharpened and tweaked RGB 
Cut into several pieces 
and cropped and rotated seperately
Overcropped at sometimes, not at others
Hardcoded subs in some foreign language
Overall not the best cam, 
but here it is for those who want it

[/code]
Screens:
[img]http://img6.imageshack.us/img6/8513/15671441.png[/img]
[img]http://img38.imageshack.us/img38/2585/24860994.png[/img]
[img]http://img685.imageshack.us/img685/8010/75562629.png[/img]
[img]http://img52.imageshack.us/img52/4894/97842796.png[/img]
[img]http://img64.imageshack.us/img64/6026/14678755.png[/img]
[img]http://img841.imageshack.us/img841/1653/49125651.png[/img]